# Blender 4.4.3
# www.blender.org
o å¹³é¢
v 1.000000 0.447371 0.398585
v 1.000000 -0.530825 0.190905
v -1.000000 0.447371 0.398585
v -1.000000 -0.530826 0.190905
v -0.875000 0.465905 0.311291
v -0.750000 0.479553 0.247004
v -0.625000 0.489937 0.198096
v -0.500000 0.497827 0.160932
v -0.375000 0.503653 0.133494
v -0.250000 0.507667 0.114584
v -0.125000 0.510023 0.103490
v -0.000000 0.510799 0.099832
v 0.125000 0.510023 0.103490
v 0.250000 0.507667 0.114584
v 0.375000 0.503653 0.133494
v 0.500000 0.497827 0.160932
v 0.625000 0.489937 0.198096
v 0.750000 0.479553 0.247004
v 0.875000 0.465905 0.311291
v 0.875000 -0.512292 0.103610
v 0.750000 -0.498643 0.039324
v 0.625000 -0.488260 -0.009584
v 0.500000 -0.480369 -0.046749
v 0.375000 -0.474544 -0.074187
v 0.250000 -0.470529 -0.093097
v 0.125000 -0.468174 -0.104190
v 0.000000 -0.467397 -0.107848
v -0.125000 -0.468174 -0.104190
v -0.250000 -0.470529 -0.093097
v -0.375000 -0.474544 -0.074187
v -0.500000 -0.480370 -0.046748
v -0.625000 -0.488260 -0.009584
v -0.750000 -0.498643 0.039324
v -0.875000 -0.512292 0.103610
vn 0.5810 0.1690 -0.7961
vn -0.5810 0.1690 -0.7961
vn -0.5244 0.1768 -0.8329
vn -0.4189 0.1886 -0.8882
vn -0.3314 0.1959 -0.9229
vn -0.2551 0.2008 -0.9458
vn -0.1860 0.2041 -0.9611
vn -0.1217 0.2061 -0.9709
vn -0.0602 0.2073 -0.9764
vn -0.0000 0.2077 -0.9782
vn 0.0602 0.2073 -0.9764
vn 0.1217 0.2061 -0.9709
vn 0.1860 0.2041 -0.9611
vn 0.2551 0.2008 -0.9458
vn 0.3314 0.1959 -0.9229
vn 0.4189 0.1886 -0.8882
vn 0.5244 0.1768 -0.8329
vt 0.937500 1.000000
vt 0.937500 0.000000
vt 1.000000 0.000000
vt 1.000000 1.000000
vt 0.000000 1.000000
vt 0.000000 0.000000
vt 0.062500 0.000000
vt 0.062500 1.000000
vt 0.125000 0.000000
vt 0.125000 1.000000
vt 0.187500 0.000000
vt 0.187500 1.000000
vt 0.250000 0.000000
vt 0.250000 1.000000
vt 0.312500 0.000000
vt 0.312500 1.000000
vt 0.375000 0.000000
vt 0.375000 1.000000
vt 0.437500 0.000000
vt 0.437500 1.000000
vt 0.500000 0.000000
vt 0.500000 1.000000
vt 0.562500 0.000000
vt 0.562500 1.000000
vt 0.625000 0.000000
vt 0.625000 1.000000
vt 0.687500 0.000000
vt 0.687500 1.000000
vt 0.750000 0.000000
vt 0.750000 1.000000
vt 0.812500 0.000000
vt 0.812500 1.000000
vt 0.875000 0.000000
vt 0.875000 1.000000
s 1
f 5/1/3 34/2/3 4/3/2 3/4/2
f 1/5/1 2/6/1 20/7/17 19/8/17
f 19/8/17 20/7/17 21/9/16 18/10/16
f 18/10/16 21/9/16 22/11/15 17/12/15
f 17/12/15 22/11/15 23/13/14 16/14/14
f 16/14/14 23/13/14 24/15/13 15/16/13
f 15/16/13 24/15/13 25/17/12 14/18/12
f 14/18/12 25/17/12 26/19/11 13/20/11
f 13/20/11 26/19/11 27/21/10 12/22/10
f 12/22/10 27/21/10 28/23/9 11/24/9
f 11/24/9 28/23/9 29/25/8 10/26/8
f 10/26/8 29/25/8 30/27/7 9/28/7
f 9/28/7 30/27/7 31/29/6 8/30/6
f 8/30/6 31/29/6 32/31/5 7/32/5
f 7/32/5 32/31/5 33/33/4 6/34/4
f 6/34/4 33/33/4 34/2/3 5/1/3
